<svg xmlns="http://www.w3.org/2000/svg" width="64" height="64" viewBox="0 0 64 64" role="img" aria-labelledby="title" color="#C43A2C">
  <title id="title">古早味滷肉飯 / Braised Pork Rice</title>
  <g fill="none" stroke="currentColor" stroke-width="3" stroke-linecap="round" stroke-linejoin="round">

    <!-- braised egg -->
    <ellipse cx="43" cy="25" rx="6" ry="7" fill="currentColor" fill-opacity="0.13"/>
    <circle cx="44" cy="25" r="2" fill="currentColor" fill-opacity="0.18"/>
    <!-- pork cubes -->
    <rect x="20" y="22" width="7" height="6" rx="1.5" fill="currentColor" fill-opacity="0.16"/>
    <rect x="28" y="25" width="7" height="6" rx="1.5" fill="currentColor" fill-opacity="0.16"/>
    <rect x="21" y="31" width="6" height="5" rx="1.3" fill="currentColor" fill-opacity="0.16"/>
    <!-- rice grains -->
    <path d="M15 34c4-6 30-8 38 0"/>
    <path d="M24 34l3-2"/>
    <path d="M32 35l3-2"/>
    <path d="M39 35l3-2"/>
    <!-- bowl -->
    <path d="M12 36c4 5 36 5 40 0"/>
    <path d="M15 37c1 9 8 16 17 16s16-7 17-16"/>
    <path d="M22 45c6 2 14 2 20 0"/>
  </g>
</svg>
